<svg width="42.000000" height="37.000000" viewBox="0 0 42 37" fill="none" xmlns="http://www.w3.org/2000/svg" xmlns:xlink="http://www.w3.org/1999/xlink">
	<desc>
			Created with Pixso.
	</desc>
	<defs/>
	<path id="Forma 1" d="M26.2 37C25.55 36.97 24.94 36.69 24.49 36.22C24.05 35.75 23.81 35.12 23.82 34.47C23.83 33.82 24.1 33.2 24.56 32.75C25.03 32.3 25.65 32.04 26.3 32.04C26.94 32.04 27.57 32.3 28.03 32.75C28.49 33.2 28.76 33.82 28.77 34.47C28.79 35.12 28.54 35.75 28.1 36.22C27.66 36.69 27.04 36.97 26.4 37L26.2 37ZM6.75 34.31C6.75 33.78 6.91 33.27 7.2 32.83C7.49 32.39 7.91 32.04 8.4 31.84C8.89 31.64 9.43 31.58 9.95 31.69C10.47 31.79 10.95 32.05 11.32 32.42C11.7 32.79 11.95 33.27 12.06 33.79C12.16 34.31 12.11 34.85 11.9 35.34C11.7 35.83 11.36 36.25 10.92 36.54C10.48 36.84 9.96 37 9.43 37C9.08 37 8.73 36.93 8.4 36.79C8.08 36.66 7.78 36.46 7.53 36.21C7.28 35.96 7.09 35.67 6.95 35.34C6.82 35.02 6.75 34.67 6.75 34.31L6.75 34.31ZM10.55 28.68C10.29 28.68 10.04 28.6 9.83 28.44C9.62 28.28 9.47 28.06 9.4 27.81L4.57 10.36L1.18 10.36C0.86 10.36 0.56 10.23 0.34 10.01C0.12 9.79 0 9.49 0 9.18C0 8.86 0.12 8.56 0.34 8.34C0.56 8.12 0.86 8 1.18 8L5.46 8C5.72 7.99 5.97 8.08 6.18 8.24C6.38 8.39 6.53 8.61 6.6 8.86L11.43 26.32L24.61 26.32L29 16.27L14.4 16.27C14.24 16.27 14.08 16.25 13.93 16.19C13.79 16.13 13.65 16.05 13.54 15.94C13.42 15.83 13.33 15.69 13.27 15.55C13.21 15.4 13.18 15.25 13.18 15.09C13.18 14.93 13.21 14.77 13.27 14.63C13.33 14.48 13.42 14.35 13.54 14.24C13.65 14.13 13.79 14.04 13.93 13.99C14.08 13.93 14.24 13.9 14.4 13.91L30.81 13.91C31 13.9 31.2 13.95 31.37 14.05C31.54 14.14 31.69 14.27 31.79 14.44C31.9 14.6 31.97 14.79 31.99 14.99C32 15.18 31.97 15.38 31.9 15.56L26.49 27.97C26.4 28.18 26.25 28.36 26.05 28.49C25.86 28.61 25.64 28.68 25.41 28.68L10.55 28.68Z" fill="#E8E8E8" fill-opacity="1.000000" fill-rule="nonzero"/>
	<path id="Ellipse 2" d="M41 9.5C41 14.74 36.74 19 31.5 19C26.25 19 22 14.74 22 9.5C22 4.25 26.25 0 31.5 0C36.74 0 41 4.25 41 9.5Z" fill="#F16D7F" fill-opacity="1.000000" fill-rule="evenodd"/>
	<path id="5" d="M32.05 7.14Q31.48 7.14 30.81 7.29L31.21 5.03L33.91 5.03Q34.25 5.03 34.39 4.89C34.48 4.79 34.53 4.66 34.53 4.51L34.53 4.04L30.46 4.04L29.77 8.06L30.44 8.26Q30.8 8.14 31.15 8.09C31.39 8.05 31.61 8.03 31.83 8.03Q32.3 8.03 32.66 8.16Q33.01 8.28 33.25 8.51C33.41 8.66 33.52 8.85 33.6 9.06C33.68 9.28 33.72 9.52 33.72 9.79C33.72 10.1 33.67 10.38 33.58 10.62C33.49 10.87 33.36 11.09 33.19 11.27Q33.13 11.32 33.07 11.37Q32.85 11.56 32.57 11.67Q32.21 11.82 31.76 11.82Q31.36 11.82 31.06 11.73C30.87 11.66 30.7 11.59 30.56 11.52C30.41 11.44 30.29 11.37 30.19 11.31C30.09 11.25 30 11.22 29.92 11.22Q29.85 11.22 29.79 11.24Q29.7 11.28 29.64 11.37L29.31 11.83C29.44 11.95 29.59 12.06 29.77 12.17C29.94 12.28 30.12 12.38 30.32 12.46Q30.63 12.59 30.98 12.66Q31.33 12.74 31.7 12.74Q32.36 12.74 32.92 12.53Q33.4 12.35 33.77 12.04Q33.84 11.98 33.9 11.93Q34.02 11.82 34.12 11.69Q34.38 11.38 34.55 10.98C34.71 10.61 34.79 10.2 34.79 9.74C34.79 9.37 34.73 9.03 34.61 8.71C34.5 8.39 34.32 8.12 34.09 7.89C33.86 7.66 33.58 7.47 33.23 7.34Q32.72 7.14 32.05 7.14Z" fill="#FFFFFF" fill-opacity="1.000000" fill-rule="evenodd"/>
</svg>
